<?xml version="1.0" encoding="UTF-8" standalone="no"?>
<!-- Created with Inkscape (http://www.inkscape.org/) -->

<svg
   xmlns:dc="http://purl.org/dc/elements/1.1/"
   xmlns:cc="http://creativecommons.org/ns#"
   xmlns:rdf="http://www.w3.org/1999/02/22-rdf-syntax-ns#"
   xmlns:svg="http://www.w3.org/2000/svg"
   xmlns="http://www.w3.org/2000/svg"
   xmlns:xlink="http://www.w3.org/1999/xlink"
   xmlns:sodipodi="http://sodipodi.sourceforge.net/DTD/sodipodi-0.dtd"
   xmlns:inkscape="http://www.inkscape.org/namespaces/inkscape"
   width="500"
   height="500"
   viewBox="0 0 500.00001 500.00001"
   id="svg2"
   version="1.1"
   inkscape:version="0.91 r13725"
   sodipodi:docname="flightningLogo.svg">
  <defs
     id="defs4" />
  <sodipodi:namedview
     id="base"
     pagecolor="#ffffff"
     bordercolor="#666666"
     borderopacity="1.0"
     inkscape:pageopacity="0.0"
     inkscape:pageshadow="2"
     inkscape:zoom="0.98994949"
     inkscape:cx="253.8874"
     inkscape:cy="246.51522"
     inkscape:document-units="px"
     inkscape:current-layer="layer1"
     showgrid="false"
     units="px"
     inkscape:window-width="1366"
     inkscape:window-height="745"
     inkscape:window-x="-8"
     inkscape:window-y="-8"
     inkscape:window-maximized="1" />
  <metadata
     id="metadata7">
    <rdf:RDF>
      <cc:Work
         rdf:about="">
        <dc:format>image/svg+xml</dc:format>
        <dc:type
           rdf:resource="http://purl.org/dc/dcmitype/StillImage" />
        <dc:title></dc:title>
      </cc:Work>
    </rdf:RDF>
  </metadata>
  <g
     inkscape:groupmode="layer"
     id="layer2"
     inkscape:label="Photograph"
     style="display:none"
     sodipodi:insensitive="true">
    <image
       sodipodi:absref="C:\Users\Luke\Pictures\typeandlogo-92.jpg"
       xlink:href="C:\Users\Luke\Pictures\typeandlogo-92.jpg"
       transform="translate(0,-552.36216)"
       width="664.09149"
       height="530.98383"
       preserveAspectRatio="none"
       id="image3352"
       x="-52.357143"
       y="537.73553" />
  </g>
  <g
     inkscape:label="Flightning Logo"
     inkscape:groupmode="layer"
     id="layer1"
     transform="translate(0,-552.36216)">
    <g
       id="g3373"
       transform="translate(8.5714286,-8.5714286)" />
    <path
       style="display:inline;fill:#1a1a1a;fill-opacity:1"
       d="m 160.72507,954.4189 c -6.00106,-1.41778 -9.57311,-4.79655 -8.37414,-7.92102 0.7567,-1.97195 2.3092,-2.19725 9.5197,-1.38147 11.17546,1.26436 15.75588,0.0418 17.55311,-4.6853 1.85082,-4.86801 0.90955,-5.68817 -3.21367,-2.80015 -7.15763,5.01341 -19.54654,1.56087 -23.78077,-6.62722 -3.41118,-6.59651 -2.09644,-17.69264 2.65992,-22.44901 4.7933,-4.79331 15.35819,-6.19082 20.63976,-2.7302 3.37595,2.21202 3.88279,2.22115 5.99596,0.10794 1.26956,-1.26958 3.69205,-2.11089 5.38331,-1.8696 2.94074,0.41955 3.09254,1.30039 3.47651,20.1742 0.39462,19.39724 0.33723,19.81189 -3.34835,24.19196 -5.51174,6.55034 -15.03327,8.70158 -26.51134,5.98983 z m 16.50254,-26.70237 c 1.95321,-1.95321 3.5513,-4.58707 3.5513,-5.85304 0,-3.13585 -6.49229,-9.40435 -9.74007,-9.40435 -8.3941,0 -12.58116,11.84386 -5.85305,16.55642 4.53158,3.17404 7.93603,2.80678 12.04182,-1.29903 z m 222.3921,26.80562 c -5.51676,-1.39042 -9.05155,-4.02334 -9.05155,-6.74211 0,-2.79008 4.77401,-5.01775 7.31206,-3.41201 2.52422,1.59699 14.42668,1.76056 16.8317,0.23132 1.79312,-1.14017 5.27064,-8.99105 3.98257,-8.99105 -0.40618,0 -2.35604,1.05984 -4.333,2.35519 -5.22441,3.42317 -15.79716,1.95816 -20.61132,-2.85599 -2.94838,-2.94838 -3.84117,-5.50399 -4.3421,-12.42929 -0.60731,-8.3959 -0.44262,-8.90573 4.46054,-13.80888 4.27291,-4.27292 6.10899,-5.09112 11.42457,-5.09112 3.53861,0 7.83431,1.05124 9.73458,2.38223 3.15773,2.21177 3.49652,2.21177 4.73429,0 1.71714,-3.06836 6.1027,-3.04951 9.19172,0.0395 2.04768,2.04767 2.33551,4.89702 1.86342,18.44699 -0.6004,17.23323 -2.27889,22.6269 -8.41894,27.05374 -4.22883,3.04889 -16.06112,4.5145 -22.77854,2.82146 z m 15.565,-25.87369 c 6.12772,-4.96192 2.21204,-16.18932 -5.64622,-16.18932 -4.82167,0 -8.84258,4.27634 -8.84258,9.40435 0,8.2049 8.0689,11.98349 14.4888,6.78497 z M 84.131168,942.55305 c -1.09484,-1.09484 -1.73619,-6.57805 -1.73619,-14.84361 0,-11.5405 -0.34592,-13.32345 -2.89364,-14.91454 -1.59151,-0.9939 -2.89365,-2.75528 -2.89365,-3.91417 0,-1.15889 1.30214,-2.80396 2.89365,-3.6557 1.89476,-1.01405 2.89364,-3.02939 2.89364,-5.83819 0,-6.02072 4.54253,-10.07686 11.28522,-10.07686 9.783602,0 12.191862,6.03571 3.80627,9.53944 -5.57509,2.32941 -6.00009,5.54778 -0.76868,5.82098 7.740272,0.40425 7.431962,8.039 -0.36222,8.96995 l -3.83283,0.45781 0,13.35935 c 0,12.96949 -1.16197,16.83172 -5.06388,16.83172 -0.87533,0 -2.37279,-0.78128 -3.32769,-1.73618 z m 26.838562,0.17347 c -2.25191,-1.31162 -2.53194,-4.1551 -2.53194,-25.70944 0,-25.00428 0.58781,-27.7071 6.02575,-27.7071 4.55003,0 5.54883,5.04267 5.54883,28.01458 0,18.45047 -0.40234,22.81986 -2.27358,24.69109 -2.63539,2.6354 -3.33814,2.70919 -6.76906,0.71087 z m 21.39934,-0.7555 c -3.51024,-3.51022 -2.64397,-34.99687 1.0264,-37.30749 1.84376,-1.1607 3.22012,-1.1607 5.06388,0 2.13823,1.3461 2.59579,4.26711 2.94255,18.78495 0.35603,14.90605 0.0789,17.43356 -2.08506,19.01588 -3.23747,2.36729 -4.15209,2.30234 -6.94777,-0.49334 z m 70.90457,0.0101 c -1.96115,-1.96116 -2.24842,-5.90519 -1.91188,-26.24865 0.34682,-20.9633 0.71096,-24.1391 2.92801,-25.53599 4.64931,-2.92936 7.5435,0.59652 8.03065,9.78337 0.42949,8.09956 0.47343,8.17326 3.57728,5.99923 4.37348,-3.0633 13.03752,-2.77956 17.16824,0.56225 3.13982,2.54017 3.45611,4.02302 3.91706,18.36423 0.43929,13.66815 0.18098,15.83525 -2.08506,17.49221 -3.32408,2.43062 -4.2306,2.38107 -6.99396,-0.38229 -1.67465,-1.67451 -2.27358,-5.21907 -2.27358,-13.45531 0,-11.92847 -1.25538,-14.65424 -6.74916,-14.65424 -4.70869,0 -6.27224,4.11124 -6.27224,16.49243 0,9.29119 -0.41204,11.11591 -2.79853,12.39312 -3.62406,1.93954 -3.81013,1.91648 -6.53683,-0.81022 z m 49.3181,-0.69072 c -3.57957,-2.81554 -3.81218,-3.74249 -3.81218,-15.19149 0,-6.86767 -0.60966,-12.19298 -1.39592,-12.19298 -0.76776,0 -2.08482,-1.28722 -2.92679,-2.86048 -1.20963,-2.26021 -0.941,-3.45038 1.2801,-5.67149 1.54606,-1.54606 3.02589,-4.26153 3.28851,-6.03439 1.11682,-7.53897 10.12913,-7.17923 11.04717,0.44096 0.33403,2.77255 1.50581,3.8808 4.79988,4.53961 3.74207,0.74841 4.29305,1.43626 3.89856,4.867 -0.3634,3.16042 -1.30422,4.09235 -4.50194,4.45935 -4.02258,0.46166 -4.04044,0.51139 -3.61706,10.06748 0.394,8.8931 0.69251,9.66621 4.03494,10.45065 4.43124,1.03997 5.5839,5.64269 2.05863,8.22042 -3.81472,2.78939 -9.80526,2.32616 -14.1539,-1.09449 z m 26.70245,0.98669 c -1.11572,-1.34434 -1.53456,-7.94554 -1.26228,-19.89381 0.40412,-17.73313 0.43691,-17.88599 3.9435,-18.38095 2.1609,-0.30502 4.26189,0.4936 5.40258,2.05359 1.74565,2.38732 2.03948,2.39623 4.53546,0.13745 4.2026,-3.80329 13.53174,-3.16346 17.64023,1.20983 2.87728,3.06272 3.50506,5.51927 4.04645,15.83404 0.76346,14.5457 -0.15844,19.09204 -4.12682,20.35156 -5.40972,1.71707 -7.16132,-1.62612 -7.16132,-13.66845 0,-12.57094 -1.84146,-16.56557 -7.27896,-15.79012 -4.88744,0.69701 -7.14297,6.11239 -7.16794,17.20991 -0.0207,9.18167 -1.53279,12.94906 -5.19742,12.94906 -0.93703,0 -2.45511,-0.90537 -3.37348,-2.01196 z m 46.16696,0.59832 c -1.65994,-1.04748 -2.28452,-5.09231 -2.65631,-17.20246 -0.56008,-18.24357 0.708,-22.31577 6.73238,-21.61978 l 3.88145,0.44842 0.40751,17.88184 c 0.47301,20.75661 -1.25138,24.98091 -8.36503,20.49198 z m 21.20317,-1.23207 c -1.89984,-2.09929 -2.39448,-5.70544 -2.39448,-17.45698 0,-8.14612 0.67397,-16.07047 1.49772,-17.60965 1.79314,-3.3505 6.12352,-3.64847 8.65709,-0.5957 1.63708,1.97255 2.17963,1.97255 5.19013,0 1.84907,-1.21156 5.94187,-2.20283 9.09513,-2.20283 4.49247,0 6.39215,0.83773 8.77821,3.87111 2.72668,3.46643 3.00236,5.4545 2.63695,19.01633 -0.33687,12.50232 -0.84518,15.42028 -2.91288,16.72158 -1.94023,1.22107 -3.07959,1.00156 -5.05509,-0.97395 -1.91223,-1.91222 -2.68373,-5.52599 -3.08359,-14.4437 -0.54899,-12.24379 -1.42953,-14.00275 -7.0292,-14.04147 -4.61209,-0.0318 -6.19989,4.12513 -6.19989,16.23183 0,13.46552 -3.46443,17.79919 -9.1801,11.48343 z M 132.67206,899.32185 c -5.67843,-3.30738 -1.21571,-11.0846 5.40679,-9.42246 4.51364,1.13286 5.05191,7.23187 0.83732,9.48745 -3.33063,1.7825 -3.06746,1.78523 -6.24411,-0.065 z m 192.42738,-0.0116 c -3.13976,-1.81408 -3.2776,-6.13324 -0.27525,-8.62497 2.75856,-2.28941 9.81956,-0.25326 10.38714,2.99529 0.82781,4.73806 -5.52937,8.27735 -10.11189,5.62968 z M 200.88667,820.93619 c -2.70386,-1.79686 -6.38104,-6.16677 -8.17148,-9.71091 -3.16423,-6.2635 -3.25535,-7.68096 -3.25535,-50.63666 0,-24.4133 0.63209,-46.39676 1.41227,-49.11707 0.77675,-2.70837 2.89272,-6.50958 4.70218,-8.44715 7.11421,-7.61795 7.70323,-7.69384 59.82913,-7.70894 47.11622,-0.0136 48.66481,0.0758 53.54627,3.09269 2.76475,1.70872 6.30873,5.61949 7.87551,8.69061 2.66258,5.21912 2.84831,8.68269 2.84325,53.02492 -0.006,45.42114 -0.13296,47.6502 -2.99976,52.35271 -7.30942,11.98964 -5.92458,11.72683 -61.79277,11.72683 -48.52663,0 -49.12785,-0.0363 -53.98925,-3.26703 z m 59.64915,-37.78838 c 1.24102,-2.72375 1.04358,-4.23605 -0.95042,-7.27925 -1.38428,-2.1127 -2.26591,-4.06187 -1.95919,-4.33153 0.30673,-0.26964 8.85884,-5.17031 19.00468,-10.89036 14.52977,-8.1919 18.44699,-11.04952 18.44699,-13.45742 0,-3.54947 -3.89216,-8.3488 -6.7707,-8.3488 -1.08995,0 -9.74084,4.2999 -19.22419,9.55532 -9.48335,5.25542 -17.56083,9.65015 -17.94997,9.76605 -0.38912,0.11589 -2.24315,-2.06801 -4.12006,-4.85315 -3.75556,-5.57288 -9.12784,-6.78899 -11.73465,-2.65633 -1.12573,1.78464 -0.81611,3.96546 1.19672,8.42911 2.32183,5.14892 2.41423,6.21212 0.63753,7.33636 -3.84175,2.43094 -7.25982,1.38798 -9.74092,-2.97224 -1.78444,-3.13594 -3.54868,-4.33384 -6.39251,-4.34046 -6.06744,-0.0145 -7.66907,4.4316 -4.10993,11.40811 5.61703,11.01026 14.98863,14.57133 24.88255,9.45498 2.42169,-1.2523 4.53962,-2.06614 4.70651,-1.80853 0.1669,0.25762 1.42355,2.25884 2.79255,4.44716 3.21279,5.13555 9.06373,5.4159 11.28501,0.54073 z"
       id="path3391"
       inkscape:connector-curvature="0" />
    <rect
       style="fill:none;fill-opacity:1"
       id="rect4199"
       width="212.13203"
       height="196.97975"
       x="143.58611"
       y="644.36206" />
    <rect
       style="fill:none;fill-opacity:1"
       id="rect4201"
       width="238.396"
       height="201.02036"
       x="114.29166"
       y="648.40265" />
    <rect
       style="fill:none;fill-opacity:1"
       id="rect4203"
       width="51.51778"
       height="24.243662"
       x="282.98715"
       y="768.61084" />
    <rect
       style="fill:none;fill-opacity:1"
       id="rect4205"
       width="171.72594"
       height="163.64471"
       x="155.70793"
       y="663.55493" />
    <path
       style="fill:#00ffff;fill-opacity:1"
       d="m 210.82985,823.29199 c -6.74049,-0.54733 -8.94028,-1.5779 -13.26984,-6.21673 -4.55234,-4.87751 -6.32875,-8.9829 -7.11319,-16.43901 -0.81468,-7.74346 -0.83049,-60.37315 -0.0232,-77.11777 0.55613,-11.53473 0.70782,-12.46024 2.61706,-15.96815 2.43225,-4.46885 7.02567,-8.68863 10.77022,-9.89414 1.50326,-0.48396 9.48321,-1.22229 17.73321,-1.64073 19.06389,-0.96692 78.66985,-0.33343 83.08763,0.88306 4.22368,1.16303 10.18237,6.72363 12.35394,11.52858 l 1.70128,3.76436 0,47.85714 0,47.85715 -2.61647,4.64285 c -4.68548,8.31428 -7.3301,9.72542 -20.08553,10.71746 -9.59385,0.74615 -76.0363,0.76638 -85.15514,0.0259 z m 47.60743,-37.22945 c 0.79315,-0.42448 1.92689,-1.93207 2.51941,-3.3502 1.02767,-2.45955 0.98608,-2.76935 -0.90211,-6.71991 -1.0887,-2.27782 -1.84178,-4.26703 -1.67352,-4.42048 0.16826,-0.15344 6.89522,-4.04993 14.94879,-8.65887 16.91137,-9.67812 21.26462,-12.67683 21.86277,-15.06004 0.58961,-2.3492 -1.82444,-6.77765 -4.56883,-8.38127 -2.20213,-1.28676 -2.22719,-1.28288 -7.43033,1.15052 -2.87142,1.34289 -11.15912,5.70068 -18.41713,9.68397 -7.258,3.98329 -13.41813,7.24234 -13.68916,7.24234 -0.27104,0 -1.64563,-1.57047 -3.05465,-3.48994 -4.59578,-6.26071 -9.16418,-7.75315 -12.35994,-4.03785 -1.94171,2.25736 -1.82798,3.61041 0.85844,10.2135 0.90297,2.21944 1.49329,4.42225 1.31183,4.89514 -0.18146,0.47288 -1.28561,1.25564 -2.45365,1.73946 -2.76779,1.14646 -4.83381,0.21842 -7.52145,-3.37859 -2.9203,-3.90839 -3.81477,-4.46497 -7.21647,-4.49043 -6.12243,-0.0458 -7.49602,4.39805 -3.70463,11.98529 5.31884,10.64393 14.61933,14.05047 25.1713,9.21961 l 3.99314,-1.82811 2.187,3.40814 c 2.98958,4.65886 6.58928,6.17757 10.13919,4.27772 z"
       id="path4211"
       inkscape:connector-curvature="0" />
    <path
       style="fill:#0000ff;fill-opacity:1"
       d="m 207.08251,822.28761 c -7.3395,-1.82467 -13.54596,-8.8759 -15.46064,-17.56498 -0.79533,-3.60935 -1.04723,-18.68122 -0.81336,-48.66527 0.37975,-48.68654 0.20096,-47.45894 7.92879,-54.44057 3.01866,-2.72718 5.11656,-3.6565 9.74515,-4.31688 7.3293,-1.0457 91.73324,-1.07673 95.57487,-0.0351 3.41756,0.92661 10.43463,7.10854 12.4143,10.9368 1.20113,2.32273 1.44983,11.19673 1.44983,51.73207 l 0,48.9284 -3.28299,4.91239 c -6.1321,9.17553 -4.55207,8.92587 -57.83124,9.13803 -25.55686,0.10177 -47.93298,-0.17942 -49.72471,-0.62486 z m 51.84633,-36.19368 c 0.61131,-0.40818 1.67887,-1.81871 2.37236,-3.13452 1.0531,-1.99812 0.96027,-3.05902 -0.56326,-6.43763 -2.22394,-4.9318 -3.1758,-4.03297 16.25674,-15.35106 15.13996,-8.81796 18.70342,-11.59658 18.70342,-14.58407 0,-2.85379 -4.83869,-8.2077 -7.41341,-8.20278 -1.20067,0.002 -9.81845,4.09342 -19.1506,9.09138 -9.33216,4.99795 -17.21402,9.08719 -17.51524,9.08719 -0.30122,0 -2.53572,-2.04556 -4.96557,-4.54569 -4.73138,-4.86822 -6.78141,-5.4583 -10.32942,-2.97317 -2.66839,1.86901 -2.82043,4.42953 -0.60715,10.22492 0.90086,2.35886 1.36969,4.98782 1.04186,5.84215 -1.10393,2.8768 -5.2083,1.74326 -9.00615,-2.48729 -3.77512,-4.20524 -6.99828,-5.08982 -10.91263,-2.99492 -4.12746,2.20895 -1.46488,12.43913 4.77212,18.33548 5.51221,5.21114 11.26254,6.07952 19.50897,2.94613 l 5.04345,-1.91636 2.07669,3.36015 c 1.14218,1.84809 2.62769,3.5837 3.30114,3.85692 1.90403,0.77246 6.15555,0.70522 7.38668,-0.11683 z"
       id="path4213"
       inkscape:connector-curvature="0" />
    <path
       style="fill:#333333;fill-opacity:1"
       d="m 111.28579,942.00629 c -1.84187,-1.34735 -1.96084,-2.83358 -1.96084,-24.4962 0,-24.90645 0.48997,-27.60751 5.00797,-27.60751 4.08644,0 4.99538,5.01049 5.04739,27.82345 0.0404,17.73175 -0.17636,20.58695 -1.74489,22.98097 -2.0175,3.07928 -3.50127,3.3829 -6.34963,1.29929 z"
       id="path4215"
       inkscape:connector-curvature="0" />
    <path
       style="fill:#333333;fill-opacity:1"
       d="m 111.28579,942.00629 c -1.84187,-1.34735 -1.96084,-2.83358 -1.96084,-24.4962 0,-24.90645 0.48997,-27.60751 5.00797,-27.60751 4.07885,0 4.98725,5.0112 5.04357,27.82292 0.0438,17.73513 -0.1722,20.58595 -1.74107,22.98097 -2.01744,3.07979 -3.50114,3.38352 -6.34963,1.29982 z"
       id="path4217"
       inkscape:connector-curvature="0" />
    <path
       style="fill:#0000ff;fill-opacity:1"
       d="m 250.42348,204.48666 c -0.82997,-0.89381 -2.92452,-3.55922 -2.92452,-3.72156 0,-0.0692 0.78349,0.61603 1.74108,1.52264 0.95758,0.90661 1.91516,1.72788 2.12794,1.82505 0.44964,0.20534 2.28406,-0.71012 16.1802,-8.07465 4.69224,-2.48675 8.57101,-4.48171 8.61949,-4.43323 0.0485,0.0485 -2.02278,1.21601 -4.60279,2.59454 -2.58,1.37852 -6.94092,3.73004 -9.69092,5.2256 -2.75,1.49556 -6.30775,3.4009 -7.90611,4.23409 l -2.90611,1.51489 -0.63826,-0.68737 z"
       id="path4221"
       inkscape:connector-curvature="0"
       transform="translate(0,552.36216)" />
    <path
       style="fill:#0000ff;fill-opacity:1"
       d=""
       id="path4223"
       inkscape:connector-curvature="0"
       transform="translate(0,552.36216)" />
    <path
       style="fill:#0000ff;fill-opacity:1"
       d=""
       id="path4225"
       inkscape:connector-curvature="0"
       transform="translate(0,552.36216)" />
    <path
       style="fill:#0000ff;fill-opacity:1"
       d=""
       id="path4227"
       inkscape:connector-curvature="0"
       transform="translate(0,552.36216)" />
    <path
       style="fill:#0000ff;fill-opacity:1"
       d=""
       id="path4229"
       inkscape:connector-curvature="0"
       transform="translate(0,552.36216)" />
    <path
       style="fill:#0000ff;fill-opacity:1"
       d="m 244.37396,226.91939 c 1.47417,-0.71021 1.875,-0.82702 1.875,-0.54644 0,0.17134 -2.73737,1.27682 -3.09561,1.25016 -0.11438,-0.009 0.4349,-0.32519 1.22061,-0.70372 z"
       id="path4231"
       inkscape:connector-curvature="0"
       transform="translate(0,552.36216)" />
    <path
       style="fill:#0000ff;fill-opacity:1"
       d="m 251.68982,233.81736 c -0.61847,-0.26945 -1.83509,-1.56637 -2.84519,-3.03299 -0.9414,-1.36688 -0.71864,-1.4358 0.26681,-0.0826 0.81351,1.11711 2.10746,2.3214 3.20895,2.98658 0.46999,0.28382 0.53642,0.37586 0.26786,0.37111 -0.19643,-0.003 -0.60072,-0.11244 -0.89843,-0.24214 z"
       id="path4233"
       inkscape:connector-curvature="0"
       transform="translate(0,552.36216)" />
    <path
       style="fill:#0000ff;fill-opacity:1"
       d="m 259.86231,222.98058 c -1.13937,-2.52293 -1.51807,-3.58263 -1.34002,-3.74973 0.33411,-0.31356 10.7824,-6.27464 10.86068,-6.19636 0.0481,0.0481 -1.27095,0.90099 -2.93113,1.89539 -2.93021,1.75511 -5.5095,3.54237 -6.13357,4.2501 -0.5337,0.60527 -0.88523,1.66455 -0.75267,2.26811 0.0674,0.30702 0.39536,1.15672 0.72872,1.88823 0.33336,0.73151 0.57966,1.40937 0.54733,1.50636 -0.0323,0.097 -0.47303,-0.74096 -0.97934,-1.8621 z"
       id="path4235"
       inkscape:connector-curvature="0"
       transform="translate(0,552.36216)" />
    <path
       style="fill:#0000ff;fill-opacity:1"
       d="m 232.02022,214.6308 c -0.50884,-0.17701 -1.30032,-0.62926 -1.75885,-1.00498 -0.81604,-0.66869 -3.5811,-3.97807 -3.4409,-4.11827 0.0391,-0.0391 0.66974,0.53628 1.40153,1.2785 2.45324,2.4882 4.28794,3.53537 6.20918,3.54393 1.01733,0.005 1.07898,0.0248 0.625,0.20561 -0.99916,0.3979 -2.06937,0.43147 -3.03596,0.0952 z"
       id="path4237"
       inkscape:connector-curvature="0"
       transform="translate(0,552.36216)" />
    <path
       style="fill:#0000ff;fill-opacity:1"
       d=""
       id="path4239"
       inkscape:connector-curvature="0"
       transform="translate(0,552.36216)" />
    <path
       style="fill:#0000ff;fill-opacity:1"
       d="m 236.79878,211.46299 c 0.009,-0.20803 0.0509,-0.25034 0.10788,-0.10789 0.0516,0.12891 0.0452,0.28293 -0.0141,0.34226 -0.0593,0.0593 -0.10154,-0.0461 -0.0938,-0.23437 z"
       id="path4243"
       inkscape:connector-curvature="0"
       transform="translate(0,552.36216)" />
    <path
       style="fill:#0000ff;fill-opacity:1"
       d=""
       id="path4247"
       inkscape:connector-curvature="0"
       transform="translate(0,552.36216)" />
    <path
       style="fill:#0000ff;fill-opacity:1"
       d="m 236.31527,213.52619 c 0.25036,-0.29754 0.50353,-0.79977 0.56261,-1.11608 0.17741,-0.94979 -0.23248,-2.92264 -1.18866,-5.72116 -0.49725,-1.45533 -0.87048,-2.67967 -0.82941,-2.72074 0.14394,-0.14394 2.51598,6.3418 2.82705,7.72985 0.21153,0.94387 0.052,1.30034 -0.85881,1.91926 -0.88341,0.6003 -1.06711,0.56765 -0.51278,-0.0911 z"
       id="path4249"
       inkscape:connector-curvature="0"
       transform="translate(0,552.36216)" />
    <path
       style="fill:#333333;fill-opacity:1"
       d="m 84.658762,389.90774 c -0.828589,-0.99838 -1.465153,-6.09129 -1.778709,-14.23076 -0.441562,-11.4623 -0.71672,-12.94738 -2.873904,-15.51105 -2.969355,-3.52888 -2.96801,-4.16952 0.01463,-6.97157 1.479071,-1.38952 2.618121,-3.87945 2.967996,-6.48796 0.814854,-6.07519 4.276712,-8.78191 11.231941,-8.78191 8.90234,0 10.09152,3.85252 2.640995,8.55583 -4.756425,3.0026 -5.244475,5.2946 -1.310947,6.15651 4.676092,1.02461 5.327762,1.3486 5.944302,2.95528 0.90851,2.36755 -1.48598,4.50545 -5.822954,5.19896 l -3.90942,0.62514 0,12.77811 c 0,9.93029 -0.35046,13.27847 -1.572508,15.02319 -1.8409,2.62825 -3.727624,2.86368 -5.531426,0.69023 z"
       id="path4255"
       inkscape:connector-curvature="0"
       transform="translate(0,552.36216)" />
    <path
       style="fill:#333333;fill-opacity:1"
       d="m 133.80974,390.16419 c -2.57769,-1.88486 -3.81927,-13.65452 -2.69452,-25.54293 0.94518,-9.9903 2.00369,-12.55463 5.18234,-12.55463 3.37156,0 4.15549,3.68901 4.30933,20.27884 0.13809,14.8904 0.0103,16.08596 -1.8721,17.517 -2.49452,1.89636 -2.72494,1.91047 -4.92505,0.30172 z"
       id="path4257"
       inkscape:connector-curvature="0"
       transform="translate(0,552.36216)" />
    <path
       style="fill:#333333;fill-opacity:1"
       d="m 160.30571,401.44379 c -4.94217,-1.39666 -8.68814,-5.32982 -7.00626,-7.35637 0.97655,-1.17666 3.03821,-1.35746 10.19348,-0.89389 10.17288,0.65907 14.23464,-0.44932 16.022,-4.37214 1.36216,-2.98961 1.47902,-5.44004 0.25945,-5.44004 -0.48496,0 -3.01566,0.94393 -5.62377,2.09762 -7.672,3.3937 -16.45998,0.69414 -20.77407,-6.38153 -2.60914,-4.27935 -2.73466,-13.96687 -0.24551,-18.94959 3.543,-7.0923 14.11594,-9.83878 23.16383,-6.01715 2.84625,1.20219 3.62709,1.13589 6.80991,-0.57817 6.11395,-3.29257 6.5639,-1.99693 6.73966,19.40671 0.14173,17.26096 0.0225,18.52884 -2.01152,21.38532 -3.70977,5.20989 -8.57825,7.50274 -16.64587,7.83952 -3.95914,0.16527 -8.85574,-0.16786 -10.88133,-0.74029 z m 14.38433,-23.66732 c 3.56852,-1.84535 7.05064,-7.1035 6.24272,-9.42676 -0.31288,-0.89973 -1.956,-3.11322 -3.65138,-4.91887 -4.26205,-4.53928 -9.47258,-4.60836 -13.20298,-0.17503 -4.25429,5.05594 -3.26765,11.53854 2.20844,14.51031 3.53212,1.91681 4.71371,1.91826 8.4032,0.0104 z"
       id="path4259"
       inkscape:connector-curvature="0"
       transform="translate(0,552.36216)" />
    <path
       style="fill:#333333;fill-opacity:1"
       d="m 204.46838,389.87671 c -0.87223,-0.87223 -1.86521,-2.69884 -2.20662,-4.05914 -0.82102,-3.27118 0.0911,-43.88311 1.03373,-46.02577 0.40364,-0.91752 1.58576,-1.89099 2.62693,-2.16326 3.18045,-0.83171 5.21531,2.63359 5.79624,9.87082 0.29324,3.65309 0.91116,6.8756 1.37316,7.16114 0.462,0.28553 2.19448,-0.18128 3.84996,-1.03736 6.60251,-3.41429 16.18897,-1.00974 18.12588,4.54648 0.63377,1.81803 1.14685,9.31298 1.14685,16.75289 0,13.33655 -0.0243,13.47898 -2.59081,15.1606 -2.47362,1.62078 -2.6892,1.59918 -4.76589,-0.47752 -1.86589,-1.86588 -2.27265,-3.79114 -2.86142,-13.54357 -0.37749,-6.25267 -0.73297,-11.44966 -0.78995,-11.54887 -1.03616,-1.80402 -3.90869,-3.35515 -6.21339,-3.35515 -4.73394,0 -6.16034,3.36142 -6.8996,16.25949 -0.54133,9.44482 -0.94557,11.40994 -2.59528,12.61623 -2.47623,1.81067 -3.08099,1.79179 -5.02979,-0.15701 z"
       id="path4261"
       inkscape:connector-curvature="0"
       transform="translate(0,552.36216)" />
    <path
       style="fill:#333333;fill-opacity:1"
       d="m 254.76001,389.52037 c -1.74503,-1.06406 -3.5633,-2.53971 -4.04061,-3.27922 -0.47731,-0.73951 -1.11772,-6.36743 -1.42314,-12.50648 -0.48402,-9.72905 -0.84062,-11.44722 -2.77792,-13.38452 -2.77199,-2.77199 -2.7659,-3.39693 0.0784,-8.05264 1.26555,-2.07153 2.9858,-5.12691 3.8228,-6.78973 0.83699,-1.66282 2.33549,-3.18001 3.33,-3.37154 2.42437,-0.46689 5.33807,2.31985 6.02697,5.76435 0.42372,2.11861 1.56036,3.19458 4.66163,4.41279 5.82073,2.28645 5.52792,7.09077 -0.53051,8.70436 -2.87903,0.76679 -2.95106,0.95048 -3.24601,8.27901 -0.38671,9.60827 0.21772,11.87798 3.37413,12.67019 4.99351,1.25329 5.50942,6.23253 0.86503,8.34866 -3.60822,1.64401 -6.51418,1.41613 -10.14075,-0.79523 z"
       id="path4263"
       inkscape:connector-curvature="0"
       transform="translate(0,552.36216)" />
    <path
       style="fill:#333333;fill-opacity:1"
       d=""
       id="path4265"
       inkscape:connector-curvature="0"
       transform="translate(0,552.36216)" />
    <path
       style="fill:#333333;fill-opacity:1"
       d="m 132.20409,345.5382 c -2.23257,-2.37646 -2.26202,-2.60253 -0.65787,-5.05076 2.78195,-4.24579 9.71395,-3.04714 9.71395,1.67969 0,2.11945 -3.43363,5.85889 -5.37975,5.85889 -0.73653,0 -2.39088,-1.11952 -3.67633,-2.48782 z"
       id="path4267"
       inkscape:connector-curvature="0"
       transform="translate(0,552.36216)" />
    <path
       style="fill:#333333;fill-opacity:1"
       d="m 324.04769,345.44028 c -0.9324,-1.12348 -1.03513,-2.35536 -0.35798,-4.29315 1.22452,-3.50422 6.04319,-4.20417 9.52626,-1.38375 2.32543,1.88302 2.34498,2.0199 0.65663,4.59665 -2.02387,3.08882 -7.64501,3.70686 -9.82491,1.08025 z"
       id="path4269"
       inkscape:connector-curvature="0"
       transform="translate(0,552.36216)" />
    <path
       style="fill:#333333;fill-opacity:1"
       d="m 280.2283,389.87519 c -1.31075,-1.31074 -1.58738,-4.40304 -1.58738,-17.74408 0,-9.20546 0.4499,-16.99733 1.04569,-18.11059 1.35174,-2.52574 4.07086,-2.48242 7.37615,0.11752 l 2.63338,2.07142 2.98513,-2.20701 c 2.43998,-1.80395 3.92698,-2.1165 8.14242,-1.71145 9.74925,0.93678 12.14779,5.62597 12.15678,23.76675 0.005,10.13463 -0.21968,11.58953 -2.07678,13.44663 -4.76972,4.76972 -7.95595,0.15361 -8.06123,-11.67886 -0.11303,-12.7021 -2.69271,-17.72133 -8.37505,-16.29516 -4.37098,1.09705 -5.97993,4.81883 -6.83055,15.80026 -1.02823,13.2742 -3.12632,16.82681 -7.40856,12.54457 z"
       id="path4271"
       inkscape:connector-curvature="0"
       transform="translate(0,552.36216)" />
    <path
       style="fill:#333333;fill-opacity:1"
       d="m 325.77753,389.96756 c -3.03251,-3.03251 -3.61996,-32.83074 -0.71621,-36.32954 0.71728,-0.86427 2.83947,-1.57139 4.71599,-1.57139 l 3.41184,0 0,17.10683 c 0,9.40876 -0.44331,18.27285 -0.98515,19.69797 -1.10946,2.91811 -4.09523,3.42737 -6.42647,1.09613 z"
       id="path4273"
       inkscape:connector-curvature="0"
       transform="translate(0,552.36216)" />
    <path
       style="fill:#333333;fill-opacity:1"
       d="m 347.54813,388.98342 c -1.32711,-1.68714 -2.15029,-4.83358 -2.57672,-9.84898 -0.8197,-9.64069 0.63608,-24.98537 2.48129,-26.15407 2.1078,-1.33502 4.53647,-1.08907 5.93951,0.60148 1.5944,1.92115 4.03774,1.92312 7.71321,0.006 1.59136,-0.82996 5.07429,-1.51181 7.73985,-1.51523 3.95975,-0.005 5.30413,0.48762 7.34798,2.69297 3.45482,3.72781 3.75738,5.61869 3.29152,20.57066 -0.31225,10.02171 -0.77241,13.46222 -1.95931,14.64911 -1.82348,1.82349 -4.55255,1.05864 -6.02241,-1.68782 -0.77541,-1.44887 -2.53706,-15.47175 -2.92454,-23.27954 -0.084,-1.69241 -3.45937,-3.86023 -6.01052,-3.86023 -5.05299,0 -6.31031,2.73755 -7.19801,15.67218 -0.44171,6.43597 -1.35035,12.36116 -2.0192,13.16708 -1.76306,2.12435 -3.58448,1.80612 -5.80265,-1.01384 z"
       id="path4275"
       inkscape:connector-curvature="0"
       transform="translate(0,552.36216)" />
    <path
       style="fill:#333333;fill-opacity:1"
       d="m 398.70171,401.38423 c -4.92161,-1.31126 -8.70022,-5.2557 -6.99873,-7.30588 0.99872,-1.20339 3.19129,-1.37309 11.59295,-0.89731 9.81592,0.55587 10.47224,0.46766 12.46921,-1.67583 2.19882,-2.36016 3.80997,-6.92743 2.79999,-7.93741 -0.32193,-0.32193 -1.99189,0.24556 -3.71103,1.26108 -4.1362,2.44332 -12.92233,2.39113 -17.17959,-0.10205 -5.46474,-3.20031 -7.15001,-6.47033 -7.6927,-14.9266 l -0.49118,-7.65363 5.03999,-5.03999 c 4.80387,-4.80387 5.2959,-5.03998 10.50256,-5.03998 3.58918,0 6.79672,0.71506 9.35281,2.08504 l 3.89025,2.08505 1.94252,-2.08505 c 2.45374,-2.63378 5.33218,-2.65729 7.92473,-0.0647 1.80969,1.80969 2.02031,3.36718 2.02031,14.94006 0,16.27751 -1.69562,23.68097 -6.44276,28.13053 -5.11152,4.79109 -15.99802,6.63023 -25.01933,4.22671 z m 17.26945,-25.57594 c 5.23261,-5.22942 1.85348,-14.85804 -5.43037,-15.47349 -7.52607,-0.63591 -12.25961,6.20268 -9.26097,13.37943 2.54433,6.08944 9.67632,7.10602 14.69134,2.09406 z"
       id="path4277"
       inkscape:connector-curvature="0"
       transform="translate(0,552.36216)" />
  </g>
</svg>
