<svg xmlns="http://www.w3.org/2000/svg" viewBox="0 0 66.49 78.99"><defs><style>.cls-1{fill:#2e64ae;}.cls-2{fill:#c6202a;}.cls-3{fill:#faa91d;}.cls-4{fill:#202b20;}.cls-5{fill:#58595b;}</style></defs><title>Huefix Logo</title><g id="Layer_2" data-name="Layer 2"><g id="Layer_2-2" data-name="Layer 2"><path class="cls-1" d="M66.49,76.71A2.31,2.31,0,0,1,64.15,79H2.34A2.31,2.31,0,0,1,0,76.71V40.09a2.31,2.31,0,0,1,2.34-2.28H64.15a2.31,2.31,0,0,1,2.34,2.28Z"/><path class="cls-2" d="M2.34,37.81A2.31,2.31,0,0,0,0,40.09V76.71A2.31,2.31,0,0,0,2.34,79H48.5a44.68,44.68,0,0,0-1-41.18Z"/><path class="cls-3" d="M0,40.09V76.71A2.31,2.31,0,0,0,2.34,79H31.26A44.53,44.53,0,0,0,35.8,59.35a44.55,44.55,0,0,0-5.53-21.54H2.34A2.31,2.31,0,0,0,0,40.09Z"/><path class="cls-1" d="M0,40.09V76.71A2.31,2.31,0,0,0,2.34,79h11A36.63,36.63,0,0,0,19,59.35a36.69,36.69,0,0,0-7-21.54H2.34A2.31,2.31,0,0,0,0,40.09Z"/><path class="cls-2" d="M32.39,56.22s3.17.89,3.58-1,.3,4,.3,4Z"/><path class="cls-1" d="M49.48,56.22s3.17.89,3.58-1,.3,4,.3,4Z"/><path class="cls-4" d="M9.11,2.25h2.5V21H9.11V12.29H2.77V21H.27V2.25h2.5v7.93H9.11Z"/><path class="cls-4" d="M25.14,20.59a7.44,7.44,0,0,1-.88.26q-.51.12-1.08.22L22,21.23a9.16,9.16,0,0,1-1,.07A8,8,0,0,1,18.92,21a3.63,3.63,0,0,1-1.61-.91,4.22,4.22,0,0,1-1-1.77,9.36,9.36,0,0,1-.36-2.83V6.79h2.39v8.66A5,5,0,0,0,19,18.39a2.34,2.34,0,0,0,2,.85q.44,0,.89,0a5,5,0,0,0,.92-.18V6.79h2.39Z"/><path class="cls-4" d="M31.09,14.59a11.42,11.42,0,0,0,.19,1.88A4.68,4.68,0,0,0,31.83,18a2.65,2.65,0,0,0,1,1,3.23,3.23,0,0,0,1.6.35,4.62,4.62,0,0,0,1.49-.23,7.21,7.21,0,0,0,1-.39l.44,1.87a5.4,5.4,0,0,1-1.21.53,6.36,6.36,0,0,1-2,.28,5.54,5.54,0,0,1-2.57-.54,4.51,4.51,0,0,1-1.7-1.52A6.46,6.46,0,0,1,28.92,17a14.84,14.84,0,0,1-.28-3q0-3.92,1.33-5.74a4.18,4.18,0,0,1,3.53-1.81A3.7,3.7,0,0,1,37,8.25a10.41,10.41,0,0,1,1,5.09V14q0,.31,0,.64Zm2.42-6.17a1.81,1.81,0,0,0-1.74,1.16,8.66,8.66,0,0,0-.65,3.11h4.42a9.44,9.44,0,0,0-.42-3.13A1.59,1.59,0,0,0,33.51,8.42Z"/><path class="cls-4" d="M45.82,0A5.89,5.89,0,0,1,47,.11a5,5,0,0,1,.92.27l-.44,1.84A4.43,4.43,0,0,0,46,2a1.92,1.92,0,0,0-1.54.64A3.44,3.44,0,0,0,44,4.82v2h3.75v2H44V21H41.57V4.82a5.38,5.38,0,0,1,1.06-3.56A3.94,3.94,0,0,1,45.82,0ZM51,4.28a1.57,1.57,0,0,1-1.1-.42,1.45,1.45,0,0,1-.46-1.12,1.45,1.45,0,0,1,.46-1.12,1.65,1.65,0,0,1,2.2,0,1.45,1.45,0,0,1,.46,1.12,1.45,1.45,0,0,1-.46,1.12A1.57,1.57,0,0,1,51,4.28ZM52.19,21H49.8V6.79h2.39Z"/><path class="cls-4" d="M61,13.7q.49.81,1,1.73T63,17.29q.52.94,1,1.88t.8,1.83H62.48a20.3,20.3,0,0,0-1.27-2.68q-.72-1.27-1.43-2.39-.71,1.12-1.44,2.39A22.38,22.38,0,0,0,57,21H54.77a16.09,16.09,0,0,1,.79-1.79q.48-.93,1-1.87t1.05-1.84l1-1.71-3.72-7h2.42l2.5,4.74,2.53-4.74h2.33Z"/><path class="cls-5" d="M.17,23.12A5.87,5.87,0,0,1,1.52,23a3.47,3.47,0,0,1,.94.12,1.87,1.87,0,0,1,.72.37,1.66,1.66,0,0,1,.46.65,2.51,2.51,0,0,1,.16,1,2.08,2.08,0,0,1-.27,1.13,1.76,1.76,0,0,1-.74.66l.3.53q.18.33.38.74t.38.83q.18.43.31.82h-.9q-.11-.29-.27-.66t-.34-.73l-.36-.7q-.18-.33-.32-.57l-.33,0H1v2.62H.17ZM1,26.41h.38a1.61,1.61,0,0,0,1.06-.31A1.3,1.3,0,0,0,2.85,25a1.85,1.85,0,0,0-.09-.64A1,1,0,0,0,2.49,24a1.07,1.07,0,0,0-.42-.22,2,2,0,0,0-.54-.07,3.62,3.62,0,0,0-.48,0Z"/><path class="cls-5" d="M5.62,27.45a4.05,4.05,0,0,0,.07.67,1.66,1.66,0,0,0,.19.53,1,1,0,0,0,.36.35,1.16,1.16,0,0,0,.57.13,1.66,1.66,0,0,0,.53-.08l.35-.14.16.67a1.93,1.93,0,0,1-.43.19,2.3,2.3,0,0,1-.72.1,2,2,0,0,1-.92-.19,1.61,1.61,0,0,1-.61-.54,2.31,2.31,0,0,1-.33-.83,5.32,5.32,0,0,1-.1-1.07,3.5,3.5,0,0,1,.48-2.06,1.5,1.5,0,0,1,1.27-.65,1.32,1.32,0,0,1,1.26.65A3.73,3.73,0,0,1,8.11,27v.22c0,.07,0,.15,0,.23Zm.87-2.21a.65.65,0,0,0-.62.42,3.09,3.09,0,0,0-.23,1.12H7.22a3.38,3.38,0,0,0-.15-1.12A.57.57,0,0,0,6.49,25.23Z"/><path class="cls-5" d="M9.38,24.8a7.24,7.24,0,0,1,.8-.18,4.8,4.8,0,0,1,.79-.07,2.33,2.33,0,0,1,.71.1,1.24,1.24,0,0,1,.54.34,1.66,1.66,0,0,1,.35.66,3.59,3.59,0,0,1,.12,1v3.08h-.86v-3a2.32,2.32,0,0,0-.2-1.11.78.78,0,0,0-.75-.35,2.51,2.51,0,0,0-.65.1v4.37H9.38Z"/><path class="cls-5" d="M16.43,22.36l.86-.15v7.39a3.5,3.5,0,0,1-.64.19,3.7,3.7,0,0,1-.73.07,1.79,1.79,0,0,1-1.56-.67,3.45,3.45,0,0,1-.48-2,5.28,5.28,0,0,1,.1-1.1,2.46,2.46,0,0,1,.33-.83,1.56,1.56,0,0,1,.57-.53,1.71,1.71,0,0,1,.83-.19,1.54,1.54,0,0,1,.39,0,1.8,1.8,0,0,1,.32.12Zm0,3.06a1.29,1.29,0,0,0-.62-.16,1,1,0,0,0-.44.1.83.83,0,0,0-.32.32,1.82,1.82,0,0,0-.2.59,5,5,0,0,0-.07.91,2.94,2.94,0,0,0,.28,1.5,1,1,0,0,0,.86.45h.24l.27-.05Z"/><path class="cls-5" d="M19.42,27.45a4.05,4.05,0,0,0,.07.67,1.66,1.66,0,0,0,.19.53A1,1,0,0,0,20,29a1.16,1.16,0,0,0,.57.13,1.66,1.66,0,0,0,.53-.08l.35-.14.16.67a1.93,1.93,0,0,1-.43.19,2.3,2.3,0,0,1-.72.1,2,2,0,0,1-.92-.19,1.61,1.61,0,0,1-.61-.54,2.31,2.31,0,0,1-.33-.83,5.32,5.32,0,0,1-.1-1.07A3.5,3.5,0,0,1,19,25.18a1.5,1.5,0,0,1,1.27-.65,1.32,1.32,0,0,1,1.26.65A3.73,3.73,0,0,1,21.91,27v.22c0,.07,0,.15,0,.23Zm.87-2.21a.65.65,0,0,0-.62.42,3.09,3.09,0,0,0-.23,1.12H21a3.38,3.38,0,0,0-.15-1.12A.57.57,0,0,0,20.29,25.23Z"/><path class="cls-5" d="M25.44,25.41a1.81,1.81,0,0,0-.72-.14,1.85,1.85,0,0,0-.69.13v4.35h-.86V24.88a3.55,3.55,0,0,1,.66-.23,3.43,3.43,0,0,1,.82-.09l.48,0a2,2,0,0,1,.45.11Z"/><path class="cls-5" d="M29.19,24.65H30.5v.72H29.19v2.8a1.08,1.08,0,0,0,.19.73.68.68,0,0,0,.52.21,1.08,1.08,0,0,0,.32,0,1.17,1.17,0,0,0,.26-.12l.17.67a1.72,1.72,0,0,1-.87.23,1.41,1.41,0,0,1-1.1-.4,2,2,0,0,1-.36-1.33V23.28l.86-.15Z"/><path class="cls-5" d="M31.59,29.75V22.36l.86-.15v2.46l.41-.1a2.6,2.6,0,0,1,.45,0,1.86,1.86,0,0,1,.62.1,1.2,1.2,0,0,1,.5.34,1.75,1.75,0,0,1,.34.66,3.59,3.59,0,0,1,.12,1v3.08H34v-3a2.32,2.32,0,0,0-.2-1.11.78.78,0,0,0-.75-.35,2.51,2.51,0,0,0-.65.1v4.37Z"/><path class="cls-5" d="M37,27.45a4.05,4.05,0,0,0,.07.67,1.66,1.66,0,0,0,.19.53,1,1,0,0,0,.36.35,1.16,1.16,0,0,0,.57.13,1.66,1.66,0,0,0,.53-.08l.35-.14.16.67a1.93,1.93,0,0,1-.43.19,2.3,2.3,0,0,1-.72.1,2,2,0,0,1-.92-.19,1.61,1.61,0,0,1-.61-.54,2.31,2.31,0,0,1-.33-.83,5.32,5.32,0,0,1-.1-1.07,3.5,3.5,0,0,1,.48-2.06,1.5,1.5,0,0,1,1.27-.65,1.32,1.32,0,0,1,1.26.65A3.73,3.73,0,0,1,39.47,27v.22c0,.07,0,.15,0,.23Zm.87-2.21a.65.65,0,0,0-.62.42A3.09,3.09,0,0,0,37,26.77h1.58a3.38,3.38,0,0,0-.15-1.12A.57.57,0,0,0,37.85,25.23Z"/><path class="cls-5" d="M44.2,22.22a2,2,0,0,1,.51.06,2.06,2.06,0,0,1,.36.13l-.18.66a1.35,1.35,0,0,0-.29-.1,1.39,1.39,0,0,0-.32,0,.82.82,0,0,0-.38.08.56.56,0,0,0-.23.21.92.92,0,0,0-.11.33,2.56,2.56,0,0,0,0,.4v.71h1.35v.72H43.54v4.38h-.86v-5.8a1.93,1.93,0,0,1,.38-1.28A1.41,1.41,0,0,1,44.2,22.22Z"/><path class="cls-5" d="M49,29.6l-.31.09-.39.08-.41.06-.37,0a2.84,2.84,0,0,1-.75-.09,1.3,1.3,0,0,1-.58-.33,1.52,1.52,0,0,1-.37-.64,3.36,3.36,0,0,1-.13-1V24.65h.86v3.1a1.78,1.78,0,0,0,.23,1.05.84.84,0,0,0,.71.31h.32a1.8,1.8,0,0,0,.33-.06V24.65H49Z"/><path class="cls-5" d="M51.31,24.65h1.32v.72H51.31v2.8a1.08,1.08,0,0,0,.19.73.68.68,0,0,0,.52.21,1.08,1.08,0,0,0,.32,0,1.17,1.17,0,0,0,.26-.12l.17.67a1.72,1.72,0,0,1-.87.23,1.41,1.41,0,0,1-1.1-.4,2,2,0,0,1-.36-1.33V23.28l.86-.15Z"/><path class="cls-5" d="M56.95,29.6l-.31.09-.39.08-.41.06-.37,0a2.84,2.84,0,0,1-.75-.09,1.3,1.3,0,0,1-.58-.33,1.52,1.52,0,0,1-.37-.64,3.36,3.36,0,0,1-.13-1V24.65h.86v3.1a1.78,1.78,0,0,0,.23,1.05.84.84,0,0,0,.71.31h.32a1.8,1.8,0,0,0,.33-.06V24.65h.86Z"/><path class="cls-5" d="M60.75,25.41a1.81,1.81,0,0,0-.72-.14,1.85,1.85,0,0,0-.69.13v4.35h-.86V24.88a3.55,3.55,0,0,1,.66-.23,3.43,3.43,0,0,1,.82-.09l.48,0a2,2,0,0,1,.45.11Z"/><path class="cls-5" d="M62.25,27.45a4.05,4.05,0,0,0,.07.67,1.66,1.66,0,0,0,.19.53,1,1,0,0,0,.36.35,1.16,1.16,0,0,0,.57.13,1.66,1.66,0,0,0,.53-.08l.35-.14.16.67a1.93,1.93,0,0,1-.43.19,2.3,2.3,0,0,1-.72.1,2,2,0,0,1-.92-.19,1.61,1.61,0,0,1-.61-.54,2.31,2.31,0,0,1-.33-.83,5.32,5.32,0,0,1-.1-1.07,3.5,3.5,0,0,1,.48-2.06,1.5,1.5,0,0,1,1.27-.65,1.32,1.32,0,0,1,1.26.65A3.73,3.73,0,0,1,64.74,27v.22c0,.07,0,.15,0,.23Zm.87-2.21a.65.65,0,0,0-.62.42,3.09,3.09,0,0,0-.23,1.12h1.58a3.38,3.38,0,0,0-.15-1.12A.57.57,0,0,0,63.11,25.23Z"/></g></g></svg>